<svg width="24" height="25" viewBox="0 0 24 25" fill="none" xmlns="http://www.w3.org/2000/svg">
<path d="M12 16.3022C14.0711 16.3022 15.75 14.6233 15.75 12.5522C15.75 10.4812 14.0711 8.80225 12 8.80225C9.92893 8.80225 8.25 10.4812 8.25 12.5522C8.25 14.6233 9.92893 16.3022 12 16.3022Z" stroke="#FBFBFB" stroke-width="1.5" stroke-linecap="round" stroke-linejoin="round"/>
<path d="M16.976 20.0525C15.3051 21.1614 13.3118 21.6805 11.3122 21.5275C9.31272 21.3746 7.42155 20.5582 5.93881 19.2081C4.45607 17.8579 3.46668 16.0513 3.12763 14.0748C2.78859 12.0983 3.11931 10.0652 4.06732 8.29802C5.01532 6.53089 6.52632 5.13096 8.36055 4.32035C10.1948 3.50975 12.2472 3.33491 14.1921 3.82356C16.137 4.31222 17.863 5.4364 19.0963 7.01771C20.3295 8.59902 20.9994 10.5469 20.9996 12.5523C20.9996 14.6233 20.2496 16.3023 18.3746 16.3023C16.4996 16.3023 15.7496 14.6233 15.7496 12.5523V8.80225" stroke="#FBFBFB" stroke-width="1.5" stroke-linecap="round" stroke-linejoin="round"/>
</svg>
