<svg width="29" height="29" viewBox="0 0 29 29" fill="none" xmlns="http://www.w3.org/2000/svg">
<path d="M19.0748 12.8045L14.6348 5.11403C14.3402 4.60464 13.8554 4.23309 13.2869 4.08101C12.7184 3.92894 12.1128 4.00879 11.6032 4.30302C11.0935 4.59724 10.7216 5.08177 10.569 5.65012C10.4165 6.21847 10.4958 6.82414 10.7896 7.33401L13.6756 12.3328L9.90162 5.79592C9.75599 5.54318 9.56198 5.32162 9.33068 5.1439C9.09937 4.96618 8.83531 4.83579 8.55359 4.76017C8.27187 4.68455 7.97801 4.6652 7.6888 4.70321C7.39959 4.74122 7.12071 4.83585 6.86809 4.98169C6.61548 5.12754 6.39408 5.32174 6.21655 5.55319C6.03902 5.78464 5.90885 6.04881 5.83347 6.33059C5.75808 6.61238 5.73897 6.90626 5.77723 7.19543C5.81548 7.48461 5.91034 7.76341 6.0564 8.01591L10.2744 15.3218L8.27637 11.8611C7.98172 11.3517 7.49688 10.9802 6.9284 10.8281C6.35992 10.676 5.75432 10.7559 5.24469 11.0501C4.73506 11.3443 4.3631 11.8289 4.21055 12.3972C4.058 12.9656 4.13734 13.5712 4.43114 14.0811L8.6491 21.387C9.23202 22.3972 10.0082 23.2827 10.9334 23.9929C11.8586 24.7031 12.9146 25.224 14.0411 25.526C15.1677 25.828 16.3427 25.9052 17.499 25.753C18.6554 25.6009 19.7704 25.2224 20.7805 24.6393C21.7906 24.0561 22.6759 23.2797 23.3858 22.3544C24.0958 21.429 24.6166 20.3729 24.9183 19.2463C25.2201 18.1197 25.2969 16.9447 25.1445 15.7883C24.9921 14.632 24.6134 13.5171 24.03 12.5071L21.81 8.66189C21.6644 8.40915 21.4704 8.18759 21.2391 8.00987C21.0078 7.83215 20.7437 7.70175 20.462 7.62614C20.1803 7.55052 19.8864 7.53116 19.5972 7.56917C19.308 7.60718 19.0291 7.70181 18.7765 7.84766C18.5239 7.9935 18.3025 8.1877 18.125 8.41915C17.9474 8.6506 17.8173 8.91477 17.7419 9.19656C17.6665 9.47834 17.6474 9.77222 17.6856 10.0614C17.7239 10.3506 17.8188 10.6294 17.9648 10.8819L19.0748 12.8045ZM19.0748 12.8045C18.055 13.3933 17.3108 14.363 17.006 15.5005C16.7012 16.6379 16.8608 17.8499 17.4496 18.8697M9.35754 27.1607C7.85242 26.1164 6.59779 24.7511 5.68409 23.1633M19.8925 3.96124C20.9057 3.96112 21.901 4.22784 22.7784 4.73457C23.6558 5.24129 24.3842 5.97016 24.8904 6.84782" stroke="white" stroke-width="1.77602" stroke-linecap="round" stroke-linejoin="round"/>
</svg>
