<svg width="19" height="19" viewBox="0 0 19 19" fill="none" xmlns="http://www.w3.org/2000/svg">
<path d="M5.66965 9.45628C6.44762 11.0468 7.73687 12.3302 9.3309 13.1009C9.44753 13.1562 9.57654 13.1801 9.70523 13.1704C9.83392 13.1606 9.95786 13.1176 10.0648 13.0454L12.4119 11.4803C12.5157 11.4111 12.6352 11.3688 12.7594 11.3574C12.8837 11.346 13.0088 11.3658 13.1235 11.4149L17.5144 13.2968C17.6636 13.3601 17.7881 13.4702 17.8693 13.6105C17.9504 13.7508 17.9838 13.9137 17.9643 14.0746C17.8255 15.1606 17.2956 16.1588 16.4739 16.8822C15.6521 17.6057 14.5948 18.0048 13.5 18.0049C10.1185 18.0049 6.87548 16.6616 4.48439 14.2705C2.0933 11.8794 0.75 8.63636 0.75 5.25485C0.750058 4.16002 1.14918 3.10274 1.87264 2.28099C2.5961 1.45923 3.59428 0.929358 4.68028 0.790571C4.84117 0.771101 5.00403 0.804445 5.14432 0.88558C5.28461 0.966714 5.39473 1.09124 5.4581 1.24041L7.34158 5.63521C7.3903 5.74888 7.41015 5.87284 7.39936 5.99604C7.38858 6.11925 7.3475 6.23787 7.27977 6.34136L5.72011 8.72445C5.64912 8.83166 5.60716 8.95544 5.59831 9.08371C5.58947 9.21198 5.61405 9.34035 5.66965 9.45628V9.45628Z" stroke="#FBFBFB" stroke-width="1.5" stroke-linecap="round" stroke-linejoin="round"/>
</svg>
