<svg width="30" height="30" viewBox="0 0 30 30" fill="none" xmlns="http://www.w3.org/2000/svg">
<path d="M10.6197 17.0825C11.6006 17.0825 12.3958 16.2873 12.3958 15.3065C12.3958 14.3256 11.6006 13.5304 10.6198 13.5304C9.6389 13.5304 8.84374 14.3255 8.84373 15.3064C8.84371 16.2873 9.63886 17.0824 10.6197 17.0825Z" stroke="white" stroke-width="1.77602" stroke-linecap="round" stroke-linejoin="round"/>
<path d="M19.4986 17.0825C20.4795 17.0825 21.2747 16.2873 21.2747 15.3065C21.2747 14.3256 20.4795 13.5304 19.4987 13.5304C18.5178 13.5304 17.7226 14.3255 17.7226 15.3064C17.7226 16.2873 18.5178 17.0824 19.4986 17.0825Z" stroke="white" stroke-width="1.77602" stroke-linecap="round" stroke-linejoin="round"/>
<path d="M21.7193 5.98249C22.7002 5.9825 23.4954 5.18735 23.4954 4.20648C23.4954 3.22561 22.7003 2.43045 21.7194 2.43044C20.7385 2.43043 19.9433 3.22557 19.9433 4.20644C19.9433 5.18731 20.7385 5.98247 21.7193 5.98249Z" fill="white"/>
<path d="M18.7264 20.1905C17.5925 20.774 16.3357 21.0784 15.0604 21.0784C13.7852 21.0784 12.5284 20.774 11.3945 20.1905" stroke="white" stroke-width="1.77602" stroke-linecap="round" stroke-linejoin="round"/>
<path d="M15.0585 8.6463L15.9466 3.31825L19.9632 3.93624" stroke="white" stroke-width="1.77602" stroke-linecap="round" stroke-linejoin="round"/>
<path d="M7.44542 10.6307C9.47771 9.39527 12.1421 8.64623 15.0593 8.64626C17.9764 8.64629 20.6408 9.3954 22.673 10.6309L22.6729 10.6311C22.9057 10.3112 23.2069 10.0471 23.5545 9.85812C23.9021 9.66912 24.2875 9.55992 24.6826 9.53845C25.0777 9.51699 25.4726 9.58379 25.8386 9.73402C26.2047 9.88424 26.5327 10.1141 26.7988 10.4069C27.0649 10.6998 27.2625 11.0482 27.3771 11.4269C27.4917 11.8056 27.5206 12.2051 27.4615 12.5963C27.4025 12.9876 27.257 13.3608 27.0358 13.6888C26.8145 14.0168 26.5229 14.2914 26.1822 14.4927L26.1824 14.4926C26.4592 15.1742 26.6021 15.9028 26.6033 16.6385C26.6032 21.0524 21.4347 24.6305 15.0591 24.6305C8.6834 24.6304 3.51495 21.0521 3.51501 16.6382C3.51623 15.9025 3.65914 15.174 3.93591 14.4923L3.93614 14.4924C3.59544 14.2912 3.30385 14.0165 3.08255 13.6885C2.86124 13.3605 2.71579 12.9873 2.65674 12.596C2.59769 12.2048 2.62654 11.8053 2.74118 11.4265C2.85583 11.0478 3.05339 10.6994 3.31953 10.4065C3.58566 10.1137 3.91368 9.88384 4.27975 9.73362C4.64583 9.5834 5.04077 9.51661 5.43588 9.5381C5.831 9.55959 6.21636 9.66881 6.56398 9.85785C6.91161 10.0469 7.21276 10.311 7.44557 10.6309L7.44542 10.6307Z" stroke="white" stroke-width="1.77602" stroke-linecap="round" stroke-linejoin="round"/>
</svg>
