<svg width="662" height="312" viewBox="0 0 662 312" fill="none" xmlns="http://www.w3.org/2000/svg">
<path d="M1 1.2019L2.55833 1.24047L4.11667 1.28309L5.675 1.33014L7.23333 1.38212L8.79167 1.43951L10.35 1.50289L11.9083 1.57288L13.4667 1.65015L15.025 1.73544L16.5833 1.8296L18.1417 1.93353L19.7 2.0482L21.2583 2.17473L22.8167 2.31433L24.375 2.46828L25.9333 2.63807L27.4917 2.82525L29.05 3.03156L30.6083 3.25889L32.1667 3.50932L33.725 3.78509L35.2833 4.08866L36.8417 4.42268L38.4 4.79005L39.9583 5.1939L41.5167 5.63763L43.075 6.12484L44.6333 6.65948L46.1917 7.24571L47.75 7.88806L49.3083 8.59123L50.8667 9.36027L52.425 10.2005L53.9833 11.1175L55.5417 12.1169L57.1 13.2049L58.6583 14.3874L60.2167 15.6706L61.775 17.0607L63.3333 18.5639L64.8917 20.1859L66.45 21.9324L68.0083 23.8086L69.5667 25.819L71.125 27.9673L72.6833 30.2564L74.2417 32.6881L75.8 35.2627L77.3583 37.9793L78.9167 40.8353L80.475 43.8262L82.0333 46.9459L83.5917 50.1864L85.15 53.5376L86.7083 56.9879L88.2667 60.5235L89.825 64.1297L91.3833 67.7898L92.9417 71.4866L94.5 75.2019L96.0583 78.9172L97.6167 82.614L99.175 86.2742L100.733 89.8803L102.292 93.416L103.85 96.8662L105.408 100.217L106.967 103.458L108.525 106.578L110.083 109.569L111.642 112.424L113.2 115.141L114.758 117.716L116.317 120.147L117.875 122.437L119.433 124.585L120.992 126.595L122.55 128.471L124.108 130.218L125.667 131.84L127.225 133.343L128.783 134.733L130.342 136.016L131.9 137.199L133.458 138.287L135.017 139.286L136.575 140.203L138.133 141.044L139.692 141.813L141.25 142.516L142.808 143.158L144.367 143.744L145.925 144.279L147.483 144.766L149.042 145.21L150.6 145.614L152.158 145.981L153.717 146.315L155.275 146.619L156.833 146.894L158.392 147.145L159.95 147.372L161.508 147.579L163.067 147.766L164.625 147.936L166.183 148.089L167.742 148.229L169.3 148.356L170.858 148.47L172.417 148.574L173.975 148.668L175.533 148.754L177.092 148.831L178.65 148.901L180.208 148.964L181.767 149.022L183.325 149.074L184.883 149.121L186.442 149.163L188 149.202" stroke="#93C77D" stroke-width="1.5" stroke-linecap="round"/>
<path d="M661 1.2019L659.433 1.24047L657.867 1.28309L656.3 1.33014L654.733 1.38212L653.167 1.43951L651.6 1.50289L650.033 1.57288L648.467 1.65015L646.9 1.73544L645.333 1.8296L643.767 1.93353L642.2 2.0482L640.633 2.17473L639.067 2.31433L637.5 2.46828L635.933 2.63807L634.367 2.82525L632.8 3.03156L631.233 3.25889L629.667 3.50932L628.1 3.78509L626.533 4.08866L624.967 4.42268L623.4 4.79005L621.833 5.1939L620.267 5.63763L618.7 6.12484L617.133 6.65948L615.567 7.24571L614 7.88806L612.433 8.59123L610.867 9.36027L609.3 10.2005L607.733 11.1175L606.167 12.1169L604.6 13.2049L603.033 14.3874L601.467 15.6706L599.9 17.0607L598.333 18.5639L596.767 20.1859L595.2 21.9324L593.633 23.8086L592.067 25.819L590.5 27.9673L588.933 30.2564L587.367 32.6881L585.8 35.2627L584.233 37.9793L582.667 40.8353L581.1 43.8262L579.533 46.9459L577.967 50.1864L576.4 53.5376L574.833 56.9879L573.267 60.5235L571.7 64.1297L570.133 67.7898L568.567 71.4866L567 75.2019L565.433 78.9172L563.867 82.614L562.3 86.2742L560.733 89.8803L559.167 93.416L557.6 96.8662L556.033 100.217L554.467 103.458L552.9 106.578L551.333 109.569L549.767 112.424L548.2 115.141L546.633 117.716L545.067 120.147L543.5 122.437L541.933 124.585L540.367 126.595L538.8 128.471L537.233 130.218L535.667 131.84L534.1 133.343L532.533 134.733L530.967 136.016L529.4 137.199L527.833 138.287L526.267 139.286L524.7 140.203L523.133 141.044L521.567 141.813L520 142.516L518.433 143.158L516.867 143.744L515.3 144.279L513.733 144.766L512.167 145.21L510.6 145.614L509.033 145.981L507.467 146.315L505.9 146.619L504.333 146.894L502.767 147.145L501.2 147.372L499.633 147.579L498.067 147.766L496.5 147.936L494.933 148.089L493.367 148.229L491.8 148.356L490.233 148.47L488.667 148.574L487.1 148.668L485.533 148.754L483.967 148.831L482.4 148.901L480.833 148.964L479.267 149.022L477.7 149.074L476.133 149.121L474.567 149.163L473 149.202" stroke="#93C77D" stroke-width="1.5" stroke-linecap="round"/>
<path d="M188 179.202L186.442 179.236L184.883 179.274L183.325 179.316L181.767 179.363L180.208 179.414L178.65 179.47L177.092 179.533L175.533 179.602L173.975 179.678L172.417 179.762L170.858 179.854L169.3 179.957L167.742 180.07L166.183 180.194L164.625 180.331L163.067 180.483L161.508 180.65L159.95 180.834L158.392 181.037L156.833 181.26L155.275 181.506L153.717 181.777L152.158 182.074L150.6 182.402L149.042 182.762L147.483 183.158L145.925 183.593L144.367 184.069L142.808 184.592L141.25 185.165L139.692 185.792L138.133 186.478L136.575 187.228L135.017 188.046L133.458 188.937L131.9 189.907L130.342 190.962L128.783 192.106L127.225 193.346L125.667 194.687L124.108 196.134L122.55 197.691L120.992 199.365L119.433 201.158L117.875 203.074L116.317 205.115L114.758 207.284L113.2 209.58L111.642 212.003L110.083 214.551L108.525 217.218L106.967 220.001L105.408 222.891L103.85 225.88L102.292 228.957L100.733 232.11L99.175 235.327L97.6167 238.591L96.0583 241.888L94.5 245.202L92.9417 248.516L91.3833 251.813L89.825 255.077L88.2667 258.293L86.7083 261.447L85.15 264.524L83.5917 267.513L82.0333 270.403L80.475 273.186L78.9167 275.853L77.3583 278.4L75.8 280.823L74.2417 283.12L72.6833 285.288L71.125 287.33L69.5667 289.246L68.0083 291.039L66.45 292.713L64.8917 294.27L63.3333 295.717L61.775 297.058L60.2167 298.297L58.6583 299.442L57.1 300.497L55.5417 301.467L53.9833 302.358L52.425 303.176L50.8667 303.926L49.3083 304.611L47.75 305.239L46.1917 305.811L44.6333 306.334L43.075 306.811L41.5167 307.246L39.9583 307.641L38.4 308.002L36.8417 308.329L35.2833 308.627L33.725 308.898L32.1667 309.144L30.6083 309.367L29.05 309.57L27.4917 309.754L25.9333 309.921L24.375 310.072L22.8167 310.21L21.2583 310.334L19.7 310.447L18.1417 310.549L16.5833 310.642L15.025 310.726L13.4667 310.802L11.9083 310.871L10.35 310.933L8.79167 310.99L7.23334 311.041L5.67501 311.088L4.11666 311.13L2.55833 311.168L1 311.202" stroke="#93C77D" stroke-width="1.5" stroke-linecap="round"/>
<path d="M473 179.202L474.567 179.236L476.133 179.274L477.7 179.316L479.267 179.363L480.833 179.414L482.4 179.47L483.967 179.533L485.533 179.602L487.1 179.678L488.667 179.762L490.233 179.854L491.8 179.957L493.367 180.07L494.933 180.194L496.5 180.331L498.067 180.483L499.633 180.65L501.2 180.834L502.767 181.037L504.333 181.26L505.9 181.506L507.467 181.777L509.033 182.074L510.6 182.402L512.167 182.762L513.733 183.158L515.3 183.593L516.867 184.069L518.433 184.592L520 185.165L521.567 185.792L523.133 186.478L524.7 187.228L526.267 188.046L527.833 188.937L529.4 189.907L530.967 190.962L532.533 192.106L534.1 193.346L535.667 194.687L537.233 196.134L538.8 197.691L540.367 199.365L541.933 201.158L543.5 203.074L545.067 205.115L546.633 207.284L548.2 209.58L549.767 212.003L551.333 214.551L552.9 217.218L554.467 220.001L556.033 222.891L557.6 225.88L559.167 228.957L560.733 232.11L562.3 235.327L563.867 238.591L565.433 241.888L567 245.202L568.567 248.516L570.133 251.813L571.7 255.077L573.267 258.293L574.833 261.447L576.4 264.524L577.967 267.513L579.533 270.403L581.1 273.186L582.667 275.853L584.233 278.4L585.8 280.823L587.367 283.12L588.933 285.288L590.5 287.33L592.067 289.246L593.633 291.039L595.2 292.713L596.767 294.27L598.333 295.717L599.9 297.058L601.467 298.297L603.033 299.442L604.6 300.497L606.167 301.467L607.733 302.358L609.3 303.176L610.867 303.926L612.433 304.611L614 305.239L615.567 305.811L617.133 306.334L618.7 306.811L620.267 307.246L621.833 307.641L623.4 308.002L624.967 308.329L626.533 308.627L628.1 308.898L629.667 309.144L631.233 309.367L632.8 309.57L634.367 309.754L635.933 309.921L637.5 310.072L639.067 310.21L640.633 310.334L642.2 310.447L643.767 310.549L645.333 310.642L646.9 310.726L648.467 310.802L650.033 310.871L651.6 310.933L653.167 310.99L654.733 311.041L656.3 311.088L657.867 311.13L659.433 311.168L661 311.202" stroke="#93C77D" stroke-width="1.5" stroke-linecap="round"/>
</svg>
